<svg width="185" height="214" viewBox="0 0 185 214" fill="none" xmlns="http://www.w3.org/2000/svg">
<path d="M92.5 0L184.732 53.5V160.5L92.5 214L0.268311 160.5V53.5L92.5 0Z" fill="url(#paint0_radial)"/>
<path fill-rule="evenodd" clip-rule="evenodd" d="M92.5 4.62423L4.26831 55.804V158.196L92.5 209.376L180.732 158.196V55.804L92.5 4.62423ZM184.732 53.5L92.5 0L0.268311 53.5V160.5L92.5 214L184.732 160.5V53.5Z" fill="#009101"/>
<path d="M71 123.5C72.0412 126.73 72.3494 128.477 72.5 131.5L71 136L67 144.5L78.5 156L89.5 148.5L85.5 138.5C86.9436 134.208 87.9425 131.872 90.5 128C91.6447 126.267 89.7987 126.087 87 126C88.9959 122.608 89.8238 120.648 90.5 117C90.6951 116.216 90.112 116.252 88 117L89.5 110C89.7118 109.188 88.5339 109.479 87 110C86.4517 107.902 88 104.474 87 104C85.8855 103.472 85.3421 103.987 84.5 104.5C83.602 103.37 83.0401 102.308 81.5 102C79.6556 102.508 80.2848 104.96 80 107.5C78.9004 106.826 78.507 106.742 78.5 107.5C78.8128 108.867 78.766 109.632 78.5 111C76.582 110.442 76.0143 110.426 76 111C76.6077 112.626 76.6703 113.511 76 115C74.1822 114.709 73.3575 114.704 73.5 116C73.927 118.538 73.9609 119.961 73.5 122.5C71.467 122.219 70.7534 122.332 71 123.5Z" fill="url(#paint1_linear)"/>
<path d="M102.5 141L94 146.5L88 157.5L96 159.5C99.6521 160.132 102.064 160.813 108 163.5C109 163.953 108.65 161.061 108 159.5C109.767 159.594 110.501 159.96 111.5 161L115 159.5H120C121.342 159.603 121.325 158.931 120 156.5C122.68 156.887 124.381 157.211 125 156.5C125.753 154.961 124.837 154.589 123 154C124.5 152 126.806 150.209 125 150C122.486 150.012 121.605 149.64 120 149C121.562 146.994 121.695 146.359 120 146.5C118.721 147.145 117.863 147.192 116 146.5C117.298 144.719 117.578 143.997 116 144C113.852 144.602 112.648 144.442 110.5 144C111.451 141.958 111.186 141.69 110 142C107.793 143.293 106.469 143.686 104 144C104.073 141.73 104.283 140.174 102.5 141Z" fill="url(#paint2_linear)"/>
<path fill-rule="evenodd" clip-rule="evenodd" d="M107.027 84.5138L107.127 84.6328C107.193 84.7111 107.29 84.8268 107.417 84.9765C107.669 85.2759 108.037 85.711 108.498 86.2534C109.42 87.3383 110.714 88.8526 112.201 90.5698C115.177 94.0059 118.92 98.2486 122.006 101.491C124.618 104.235 126.696 106.355 128.73 108.429C131.12 110.867 133.448 113.241 136.508 116.493C138.582 118.696 139.833 121.448 140.74 124.415C141.417 126.634 141.911 129.008 142.405 131.383C142.569 132.173 142.733 132.962 142.904 133.746C144.286 140.081 146.13 146.143 151.917 149.916C153.769 151.124 156.352 152.017 159.222 152.669C162.084 153.319 165.193 153.722 168.074 153.97C169.232 154.069 172.856 154.631 176 154.966C173.356 155.131 168.972 155.051 167.988 154.966C165.081 154.716 161.922 154.308 159 153.644C156.086 152.982 153.368 152.057 151.371 150.754C145.217 146.741 143.311 140.303 141.927 133.959C141.751 133.153 141.584 132.349 141.418 131.551C140.927 129.188 140.446 126.878 139.783 124.707C138.899 121.812 137.706 119.224 135.78 117.178C132.707 113.913 130.403 111.564 128.031 109.145C126.005 107.079 123.929 104.962 121.282 102.18C118.179 98.9202 114.423 94.6629 111.445 91.2244C109.956 89.5044 108.66 87.9877 107.736 86.901C107.31 86.3989 106.962 85.9886 106.712 85.6924C106.155 86.7155 105.91 87.7197 105.923 88.7487C105.938 89.9814 106.325 91.2877 107.059 92.743C109.25 97.0899 112.5 101 115.5 104.5C109.121 100.929 103.708 98.3162 100.775 96.7688C98.2493 95.4363 96.7811 94.7436 95.9102 94.4406C95.7411 94.872 95.6931 95.3014 95.7497 95.7381C95.8233 96.3062 96.0781 96.9157 96.5277 97.576C97.4337 98.9065 99.0661 100.351 101.289 101.954C104.079 103.966 107.703 106.164 111.802 108.65C113.883 109.912 116.086 111.248 118.364 112.671C118.123 111.937 117.889 111.207 117.666 110.482C117.154 108.82 117.035 107.504 117.249 106.539C117.47 105.545 118.062 104.892 118.921 104.72C119.727 104.559 120.644 104.85 121.511 105.417C122.39 105.992 123.28 106.888 124.06 108.058C124.836 109.222 125.538 110.695 126.243 112.307C126.54 112.988 126.835 113.687 127.137 114.403C127.561 115.407 127.999 116.444 128.475 117.506C130.095 121.118 132 124.999 134.5 127.999C131.5 126.499 128.357 119.688 127.562 117.915C127.087 116.853 126.636 115.787 126.206 114.768C125.904 114.052 125.611 113.36 125.326 112.707C124.624 111.101 123.951 109.698 123.228 108.613C122.5 109.999 120.5 110.482 118.622 110.188C119.119 111.806 119.676 113.456 120.242 115.129L120.298 115.297C120.845 116.914 121.399 118.551 121.911 120.189C122.969 123.576 123.857 126.992 124.142 130.292L124.143 130.311L124.144 130.329C124.21 135.922 124.337 140.229 125.61 144.507C126.88 148.772 129.302 153.043 134.022 158.508C138.698 163.922 143.857 166.375 147.84 167.478C148.889 167.769 153.356 169.165 155 169.5C153.856 169.665 148.148 168.602 147.573 168.442C143.431 167.295 138.09 164.748 133.265 159.162C128.486 153.628 125.974 149.234 124.652 144.792C123.354 140.43 123.214 136.057 123.147 130.6C120.332 128.661 117.851 127.001 115.693 125.557C112.404 123.357 109.863 121.656 108.025 120.23C106.484 119.036 105.379 117.992 104.729 116.961C104.06 115.903 103.873 114.857 104.159 113.714C104.28 113.18 105.713 114.041 106.955 114.46C105.586 113.617 104.31 112.792 103.161 111.98C100.764 110.287 98.8664 108.617 97.8305 106.919C97.3079 106.062 96.9933 105.18 96.9584 104.273C96.9232 103.361 97.1721 102.46 97.7179 101.573C97.9576 100.999 99.083 101.913 100.383 102.532C98.2962 101.002 96.6617 99.5495 95.7011 98.1388C95.193 97.3926 94.8576 96.6357 94.758 95.8666C94.6572 95.0888 94.8017 94.3283 95.2057 93.5942L95.7703 93.3515C96.701 93.595 98.3157 94.3407 101.242 95.8843C103.813 97.2408 107.434 99.2342 112.554 102.094C109.706 98.6324 107.458 95.7568 106.166 93.1932C105.39 91.6552 104.941 90.1961 104.923 88.7612C104.905 87.3174 105.324 85.9361 106.226 84.5612C106.495 84.2897 106.666 84.2598 107.027 84.5138ZM118.865 114.176L98.3369 102.52C98.0522 103.107 97.9361 103.676 97.9576 104.234C97.9845 104.931 98.2267 105.648 98.6841 106.398C99.6082 107.913 101.363 109.485 103.738 111.163C106.103 112.834 109.029 114.572 112.247 116.434C112.911 116.818 113.588 117.208 114.274 117.603C116.556 118.917 118.944 120.291 121.338 121.74C121.214 121.323 121.087 120.905 120.956 120.487C120.448 118.861 119.897 117.233 119.35 115.613L119.294 115.45C119.15 115.024 119.007 114.6 118.865 114.176ZM121.752 123.18C122.324 125.255 122.783 127.306 123.032 129.308C120.457 127.541 118.186 126.022 116.2 124.693C112.944 122.515 110.453 120.848 108.638 119.44C107.116 118.26 106.127 117.304 105.574 116.428C105.176 115.796 105.005 115.209 105.032 114.597L121.752 123.18Z" fill="#009101"/>
<path fill-rule="evenodd" clip-rule="evenodd" d="M8.28857 139.975C9.43231 140.546 10.6893 140.832 11.8325 141.426C12.5276 141.788 13.5257 142.312 14.7389 142.965C17.1649 144.269 20.3466 145.928 23.792 147.975C27.2361 150.02 31.2274 152.243 34.292 154.475C37.3415 156.695 40.1971 159.088 41.5 160.999C42.1659 161.975 43.086 163.126 44 164.499C46.5324 168.301 49.4226 173.122 53 177.999C55.4326 181.315 57.7487 184.864 60.1547 187.531C62.5689 190.208 64.8368 192.292 66.7629 193.376C68.6753 194.451 72.0311 195.286 76.1294 195.887C80.207 196.485 84.953 196.843 89.597 196.999C94.2405 197.155 98.772 197.108 102.419 196.898C104.243 196.793 105.839 196.648 107.115 196.468C108.406 196.285 109.322 196.074 109.815 195.854C110.869 195.386 111.965 194.567 113.082 193.567C114.111 192.646 115.131 191.596 116.135 190.564C116.219 190.478 116.303 190.391 116.386 190.305C117.462 189.199 118.522 188.123 119.519 187.309C123.012 184.46 126.785 181.985 130.389 179.283C130.498 179.201 130.655 179.083 130.848 178.937C131.232 178.646 131.756 178.247 132.313 177.815C127.5 177.499 129.5 175.999 135.227 173.401C134.781 172.733 133.57 172.064 130.639 172.796C127.726 173.525 123.539 175.857 120.033 178.048C118.291 179.137 116.734 180.179 115.614 180.95C115.053 181.335 114.602 181.652 114.291 181.872C114.136 181.983 114.016 182.069 113.935 182.127L113.895 182.155C113.893 182.16 113.89 182.165 113.886 182.17C113.845 182.24 113.784 182.341 113.705 182.471C113.547 182.731 113.314 183.103 113.018 183.559C112.426 184.471 111.576 185.716 110.547 187.051C108.501 189.704 105.693 192.784 102.741 194.259C99.7364 195.759 95.5106 196.132 92.0991 196.145C91.3448 196.148 86.5932 195.721 84 195.145C86.7743 195.145 91.3192 195.148 92.0951 195.145C95.4864 195.132 99.5106 194.754 102.294 193.364C105.03 191.998 107.722 189.078 109.755 186.441C110.764 185.132 111.598 183.909 112.18 183.014C112.47 182.567 112.697 182.202 112.852 181.95C112.929 181.824 112.988 181.726 113.027 181.659L113.071 181.585L113.082 181.566L113.085 181.562L113.085 181.561L113.103 181.531L113.124 181.504C115.923 177.919 119.937 173.529 123.243 170.044C124.276 168.955 125.241 167.952 126.08 167.089C121.769 166.861 124.344 164.505 128.644 162.306C128.419 161.906 128.069 161.569 127.494 161.42C126.901 161.267 126.01 161.301 124.689 161.781C121.986 162.764 119.9 163.992 118.491 164.972C118.096 165.247 117.754 165.502 117.467 165.727C117.146 166.037 116.784 166.35 116.379 166.664L116.235 166.861C116.113 167.026 115.934 167.269 115.706 167.578C115.25 168.196 114.595 169.082 113.802 170.149C112.215 172.283 110.073 175.144 107.853 178.052C105.633 180.96 103.332 183.918 101.428 186.245C100.477 187.408 99.6208 188.418 98.9218 189.186C98.5724 189.57 98.2585 189.898 97.9889 190.156C97.7264 190.407 97.4819 190.616 97.275 190.74C96.8963 190.967 96.3203 191.161 95.6513 191.334C94.9692 191.509 94.1433 191.674 93.2338 191.828C91.414 192.135 89.2301 192.402 87.1322 192.621C86.3203 192.706 79.9288 193.186 76.9466 192.999C79.9288 192.186 86.2713 191.706 87.0283 191.627C89.1179 191.408 91.2778 191.144 93.0673 190.842C93.9625 190.691 94.7578 190.531 95.4018 190.365C96.059 190.196 96.5142 190.03 96.7605 189.883C96.8661 189.819 97.0435 189.676 97.2973 189.433C97.5441 189.197 97.841 188.888 98.1821 188.513C98.864 187.764 99.7073 186.769 100.654 185.612C102.547 183.298 104.84 180.35 107.058 177.445C109.275 174.541 111.414 171.684 112.999 169.552C113.792 168.486 114.446 167.602 114.902 166.984C115.129 166.675 115.308 166.433 115.429 166.268L115.614 166.017L115.664 165.957L115.666 165.956L115.668 165.954L115.676 165.946L115.706 165.917C115.732 165.892 115.769 165.857 115.818 165.812C115.915 165.721 116.059 165.592 116.248 165.431C113 165.499 115 163.499 117.986 160.799C117.526 160.363 116.732 160.1 115.715 160.2C114.706 160.298 113.515 160.754 112.33 161.702C111.106 162.681 109.687 164.068 108.1 165.678C107.608 166.178 107.099 166.699 106.577 167.235C105.424 168.416 104.202 169.668 102.931 170.918C99.2395 174.547 95.0632 178.225 90.7307 180.264C86.377 182.313 82.7663 182.321 80.2298 181.801C78.965 181.542 77.9728 181.152 77.2929 180.824C77.2673 180.812 77.2422 180.8 77.2176 180.788C77.3176 181.362 77.4324 182.118 77.5108 182.938C77.5948 183.815 77.6384 184.777 77.5737 185.668C77.5098 186.548 77.3372 187.417 76.9466 188.068C74.5911 191.997 70.1287 186.587 68.5 184.999C67.6835 184.202 66.4643 182.937 65.2466 181.801C62.8118 179.53 59.788 176.693 56.7886 173.975C53.7895 171.257 50.9757 168.435 48.7886 166.475C48.2839 166.022 46.2886 164.475 45.0178 163.311C47.2886 164.475 49.2951 165.532 49.7886 165.975C51.9765 167.936 54.7877 170.255 57.7886 172.975C60.7892 175.694 63.5599 178.723 66 180.999C67.2199 182.136 68.1759 183.195 69 183.999C69.5 182.499 72.2271 180.157 72.5 180.499C73.0716 181.213 75 182.999 76.5763 185.596C76.6354 184.781 76.5964 183.88 76.5153 183.033C76.4344 182.188 76.3129 181.408 76.2113 180.839C76.1606 180.555 76.115 180.325 76.0822 180.166C76.0658 180.086 76.0527 180.025 76.0437 179.983L76.0335 179.937L76.0304 179.923L75.7343 178.623L76.8109 179.406L76.8119 179.407L76.82 179.413C76.828 179.418 76.8412 179.427 76.8595 179.44C76.8962 179.464 76.9534 179.501 77.0305 179.548C77.1848 179.642 77.4186 179.775 77.727 179.923C78.344 180.221 79.2581 180.581 80.4307 180.822C82.7692 181.301 86.1586 181.31 90.3049 179.359C94.4723 177.398 98.546 173.826 102.23 170.205C103.493 168.963 104.702 167.724 105.852 166.546C106.377 166.008 106.889 165.483 107.388 164.976C108.973 163.367 110.43 161.942 111.705 160.921C113.021 159.868 114.392 159.324 115.617 159.204C116.835 159.085 117.947 159.384 118.674 160.073C119.423 160.783 119.686 161.833 119.315 163.009C119.283 163.109 119.247 163.209 119.207 163.311C120.556 162.485 122.278 161.594 124.347 160.841C125.775 160.322 126.884 160.23 127.744 160.452C128.622 160.679 129.179 161.217 129.516 161.816C129.846 162.402 129.966 163.043 130.008 163.517C130.029 163.757 130.032 163.964 130.028 164.111C130.027 164.185 130.024 164.245 130.021 164.288C130.02 164.309 130.018 164.326 130.017 164.338L130.016 164.353L130.016 164.358L130.015 164.36L129.87 164.666L129.753 164.783C129.675 164.861 129.561 164.975 129.413 165.124C129.118 165.42 128.689 165.853 128.157 166.394C127.094 167.476 125.618 168.993 123.969 170.732C121.48 173.356 118.604 176.478 116.153 179.374C117.117 178.726 118.263 177.975 119.503 177.2C122.997 175.016 127.309 172.598 130.396 171.826C133.466 171.059 135.254 171.64 136.059 172.846C136.446 173.427 136.556 174.094 136.5 174.679C136.445 175.252 136.225 175.811 135.871 176.165C135.313 176.723 134.035 177.744 132.926 178.605C132.412 179.004 131.926 179.375 131.55 179.659C132.277 179.956 132.852 180.276 133.281 180.613C133.869 181.075 134.239 181.616 134.271 182.222C134.304 182.833 133.985 183.359 133.529 183.769C133.072 184.18 132.432 184.52 131.684 184.783C127.831 186.137 125.834 186.559 122.556 186.81C121.914 186.859 121.114 187.299 120.152 188.084C119.206 188.856 118.186 189.889 117.103 191.003C117.018 191.09 116.933 191.177 116.847 191.265C115.849 192.292 114.805 193.367 113.749 194.312C112.605 195.336 111.417 196.237 110.221 196.768C109.589 197.049 108.551 197.275 107.255 197.458C105.942 197.643 104.316 197.79 102.476 197.896C98.7948 198.108 94.2325 198.155 89.5635 197.999C84.8951 197.842 80.1098 197.481 75.9843 196.876C71.8795 196.274 68.3602 195.421 66.2726 194.247C64.1987 193.08 61.8416 190.894 59.4121 188.201C56.9744 185.498 54.4424 181.828 52 178.499C48.4077 173.601 45.0036 168.926 42.4698 165.121C41.5605 163.756 40.7619 162.557 40.1047 161.593C38.9075 159.837 36.4708 157.714 33.4266 155.497C30.3974 153.291 26.8184 151.029 23.3874 148.991C19.9578 146.954 16.6831 145.145 14.2654 143.845C13.0567 143.196 12.0626 142.673 11.371 142.313C10.1754 141.691 9.24776 140.934 8.28857 139.975ZM129.87 164.666L129.997 164.539L130.015 164.361L129.87 164.666ZM115.664 165.957L115.637 165.985L115.615 166.016L115.664 165.957ZM130.618 180.374L123.5 185.499C125.805 185.232 128.26 184.926 131.352 183.84C125.605 185.231 128.5 181.499 131.684 181.116C131.5 180.499 131 180.499 130.618 180.374Z" fill="#009101"/>
<path fill-rule="evenodd" clip-rule="evenodd" d="M46.5454 154.55C45.8471 154.374 44.8506 154.106 43.6531 153.737C41.2596 152.999 38.0554 151.853 34.822 150.226C28.3984 146.993 21.6606 141.751 21.2529 133.848C21.0514 129.942 22.0412 127.123 23.7375 125.153C25.4268 123.191 27.7677 122.126 30.1684 121.625C32.569 121.124 35.0631 121.179 37.1141 121.484C38.1409 121.637 39.0653 121.853 39.8196 122.099C40.2011 122.224 40.5507 122.359 40.8525 122.503C40.9195 122.179 41.0185 121.814 41.1448 121.425C41.3985 120.642 41.776 119.719 42.2751 118.751C43.2709 116.819 44.769 114.671 46.7729 113.1C48.7859 111.522 51.3201 110.52 54.3453 110.926C57.357 111.33 60.7802 113.121 64.6065 116.97C69.734 122.127 70.7396 129.045 70.4904 134.605C70.3656 137.391 69.9251 139.857 69.5162 141.626C69.3116 142.511 69.1146 143.223 68.9683 143.716C68.7968 144.292 68.2271 145.835 68.2271 146.835C68.0244 145.752 67.7589 144.741 67.7642 143.635C67.7663 143.2 67.7608 142.57 67.7307 141.792C67.6705 140.234 67.5116 138.087 67.1173 135.73C66.3243 130.989 64.5971 125.509 60.9176 122.193C57.9481 119.518 55.4603 118.553 53.4567 118.579C51.4653 118.605 49.8461 119.613 48.6057 121.119C47.3605 122.63 46.5221 124.619 46.1198 126.512C45.7134 128.423 45.7722 130.136 46.2092 131.119L45.4323 131.706C44.7534 131.141 43.241 130.369 41.3353 129.718C39.4439 129.071 37.2298 128.564 35.1788 128.491C33.1127 128.416 31.3027 128.784 30.1225 129.784C28.9767 130.755 28.3095 132.425 28.7464 135.246C29.6207 140.89 34.3435 145.536 38.9718 148.808C41.2717 150.433 43.5177 151.698 45.1896 152.556C46.0251 152.985 46.7159 153.312 47.1969 153.531C47.7483 153.783 48.7271 154.335 50.2271 154.835C49.5235 154.835 47.2946 154.739 46.5454 154.55Z" fill="#009101"/>
<path d="M71.2498 136.5C72.5831 140.667 76.8498 151.2 77.2498 152H76.2498L69.2498 137.5C68.2498 136 66.2498 137 66.2498 139.5C64.2498 139.5 62.7498 140.5 64.7498 142.5L73.7498 153L72.7498 153.5L62.7498 142.5C61.2498 141 59.7498 144 60.7498 146C58.7498 146 55.7498 148 58.7498 149.5L72.2498 155.5V156.5L57.2498 151C55.2498 150.5 54.75 153 56.75 154C54.2501 154.5 54.75 157.5 56.2498 157.5L72.2498 158.5V159.5L57.7498 159C54.75 159 56.2498 163.5 58.7498 163C57.25 164.5 59.25 168 61.2498 167L72.7498 161.5L73.7498 162L64.7498 167C61.75 168.5 62.6383 169.29 66.7498 169.5C67.6291 172.514 68.6479 172.399 71.2498 169.5L76.2498 163H77.2498L71.7498 171.5C70.2514 173.202 72.2496 174 73.7498 173.5C73.25 175 75.25 175.5 75.75 174.5C76.25 173.5 78.2498 163 78.2498 163H79.7498L77.75 175C77.2498 176.5 79.7498 176.5 80.75 175C81.7498 176.5 83.75 176.5 83.75 175L81.7498 163H83.2498L85.75 175C86.25 176 88.2137 176.089 88.7498 174.5C90.5409 175.364 92.75 175 92.25 173.5L85.2498 163H86.2498L94.7498 173C95.75 174.5 99.7498 173 98.7498 170.5C100.75 171 103.25 168 100.75 167L87.75 162.5L88.7498 162L103.75 166C105.25 166.5 106.25 164.5 104.75 163.5C106.25 163 106.75 160.5 104.75 160.5H89.7498L90.2498 160L104.75 158C107.25 158 106.75 156 105.25 155.5C106.75 154.5 106.25 151 104.25 152L90.7498 158.5V157.5L104.75 150C106.25 149.5 105.75 146.5 103.75 146C104.25 144.5 103.25 142.5 101.75 144L90.2498 156V154.5L101.25 142.5C102.75 140.5 100.75 139 98.7498 140C99.2498 137.5 96.75 135.5 95.75 137.5L86.2498 153L85.2498 152L94.2498 136.5C95.7498 134 92.2498 131.5 89.7498 133.5C88.2498 130 83.75 130.5 83.75 133L83.2498 152H81.7498L82.2498 133C82.2498 130.5 78.7498 130.5 76.2498 133.5C72.7498 132 70.2898 133.5 71.2498 136.5Z" fill="url(#paint3_angular)"/>
<path d="M92 156.5C92 161.194 87.0751 165 81 165C74.9249 165 70 161.194 70 156.5C70 151.806 74.9249 148 81 148C87.0751 148 92 151.806 92 156.5Z" fill="url(#paint4_radial)"/>
<path d="M75.8586 39.601C75.8509 39.4715 75.7008 39.3732 75.4084 39.3059C75.1928 39.2593 74.9773 39.2386 74.7618 39.2438C74.5771 39.2489 74.2154 39.2593 73.6766 39.2748C73.2148 39.2955 72.8492 39.3059 72.5799 39.3059C72.5799 39.2075 72.5914 39.0703 72.6145 38.8943C72.6376 38.6924 72.6491 38.5553 72.6491 38.4828C72.6722 38.136 72.6915 37.6908 72.7069 37.1472C72.7299 36.5415 72.7415 35.6537 72.7415 34.4838C72.7415 34.1473 72.7299 33.7021 72.7069 33.1482C72.6761 32.47 72.6607 32.0248 72.6607 31.8126C72.6299 30.4563 72.5837 29.6151 72.5221 29.2889C72.4837 29.0819 72.0334 28.9861 71.1714 29.0016C70.8327 29.0068 70.5403 29.0353 70.294 29.087C70.04 29.144 69.9207 29.2113 69.9361 29.2889C70.0131 29.7186 70.0554 30.5598 70.0631 31.8126C70.0631 32.0921 70.0785 32.5373 70.1093 33.1482C70.1323 33.728 70.1439 34.1732 70.1439 34.4838C70.1439 36.3474 70.1054 37.5769 70.0284 38.1722L69.1626 38.8322C68.6161 39.0134 68.0389 39.104 67.4308 39.104H65.5259C65.5259 39.0005 65.5375 38.8607 65.5606 38.6847C65.5914 38.4776 65.6068 38.3378 65.6068 38.2654C65.6299 37.9185 65.6491 37.4733 65.6645 36.9298C65.6799 36.3241 65.6876 35.5088 65.6876 34.4838C65.6953 34.1473 65.6876 33.7021 65.6645 33.1482C65.6337 32.47 65.6145 32.0248 65.6068 31.8126C65.576 30.4511 65.5336 29.6099 65.4798 29.2889C65.4413 29.0819 64.991 28.9861 64.129 29.0016C63.7827 29.0068 63.4902 29.0353 63.2516 29.087C62.9899 29.144 62.8668 29.2113 62.8822 29.2889C62.9591 29.7186 63.0015 30.5598 63.0092 31.8126C63.0169 32.0921 63.0323 32.5373 63.0553 33.1482C63.0861 33.728 63.1015 34.1732 63.1015 34.4838C63.1015 35.5346 63.09 36.4225 63.0669 37.1472C63.0592 37.5406 63.04 37.9858 63.0092 38.4828C62.9707 39.2282 62.9591 39.6243 62.9745 39.6708C63.0053 39.8624 63.8404 39.9685 65.4798 39.9892C66.642 40.0047 67.6079 39.9892 68.3775 39.9426C69.0394 39.9012 69.5743 39.6372 69.9823 39.1506C69.9977 39.4612 70.0092 39.6346 70.0169 39.6708C70.04 39.7796 70.2055 39.8598 70.5133 39.9116C70.7827 39.953 71.106 39.9659 71.4831 39.9504C71.714 39.9607 71.9103 39.9685 72.0719 39.9737C72.5799 39.9892 73.1725 39.9815 73.8498 39.9504C73.8652 40.0384 73.8459 40.1833 73.7921 40.3852C73.7382 40.5664 73.7267 40.7088 73.7574 40.8123C73.8498 41.066 74.2308 41.185 74.9004 41.1695C75.1698 41.1643 75.3968 41.1333 75.5815 41.0763C75.7893 41.009 75.8855 40.9314 75.8701 40.8434C75.8548 40.6984 75.8548 40.4914 75.8701 40.2222C75.8778 39.9478 75.874 39.7407 75.8586 39.601Z" fill="#00570C"/>
<path d="M85.0216 38.1178C85.0216 38.0091 84.606 37.9548 83.7747 37.9548C82.9435 37.9496 82.524 38.0039 82.5163 38.1178C82.5086 38.3767 82.5048 38.4931 82.5048 38.4673C82.4894 38.7623 82.4471 39.0471 82.3778 39.3214C82.3239 39.5544 82.1277 39.6993 81.789 39.7563C81.612 39.7873 81.2887 39.7925 80.8192 39.7718C79.8033 39.7252 79.2337 39.6993 79.1106 39.6941C79.0798 39.6113 79.0914 39.337 79.1452 38.871C79.1529 38.7986 79.1876 38.5475 79.2491 38.1178C79.2876 37.8176 79.3146 37.5691 79.3299 37.3724C79.3761 36.7098 79.3954 36.218 79.3877 35.897C79.4108 35.8918 79.7225 35.8841 80.3228 35.8737C80.9693 35.8582 81.4273 35.8427 81.6966 35.8271C81.866 35.8168 82.0007 35.765 82.1007 35.6718C82.2008 35.5735 82.2508 35.4518 82.2508 35.3069C82.2508 34.96 82.0391 34.784 81.6158 34.7788C81.6004 34.7788 81.2233 34.7788 80.4844 34.7788C79.7764 34.784 79.4031 34.784 79.3646 34.7788C79.3646 34.7478 79.353 34.3569 79.3299 33.6063C79.3069 33.0213 79.2876 32.6331 79.2722 32.4416C79.1876 31.3441 79.1645 30.5805 79.203 30.1509C79.2491 29.6539 79.2799 29.4028 79.2953 29.3976C80.3344 29.4805 81.2733 29.5064 82.1123 29.4753C82.1123 29.5115 82.0969 29.6384 82.0661 29.8558C81.9737 30.5495 81.9314 30.8782 81.9391 30.8419C81.9237 30.9248 82.3278 30.9791 83.1513 31.005C83.9825 31.0257 84.4135 30.9714 84.4443 30.8419C84.529 30.4278 84.5867 29.9723 84.6175 29.4753C84.6252 29.2889 84.4559 29.1647 84.1095 29.1026C84.0172 29.087 83.7324 29.0689 83.2552 29.0482C82.6549 29.0172 81.5812 29.0016 80.0342 29.0016C78.1023 29.0068 77.0826 29.0586 76.9748 29.1569C76.7901 29.3329 76.6862 29.628 76.6631 30.0421C76.6477 30.1767 76.6438 30.3424 76.6515 30.5391C76.6592 30.8083 76.6631 30.9532 76.6631 30.974C76.6554 31.4657 76.69 32.1724 76.767 33.0938C76.844 34.067 76.8863 34.7763 76.894 35.2215C76.9017 36.5622 76.8363 37.6597 76.6977 38.5139C76.6131 39.016 76.59 39.3965 76.6284 39.6553C76.6515 39.8313 76.7824 39.9478 77.021 40.0047C77.1441 40.041 77.3827 40.0643 77.7368 40.0746C79.5378 40.1316 81.154 40.1264 82.5856 40.0591C83.2321 40.0229 83.6092 39.9996 83.717 39.9892C84.2019 39.9323 84.5213 39.821 84.6752 39.6553C84.8676 39.4586 84.9792 39.1739 85.01 38.8012C85.0177 38.796 85.0216 38.7365 85.0216 38.6226C85.0216 38.664 85.0216 38.4957 85.0216 38.1178Z" fill="#00570C"/>
<path d="M97.7085 34.7167C97.7085 34.8203 97.7085 33.0084 97.7085 29.2812C97.7085 29.1 97.2544 29.0094 96.3462 29.0094C95.438 29.0094 94.9839 29.1 94.9839 29.2812V29.4054C94.9839 32.7858 94.9839 34.577 94.9839 34.7788C94.6375 34.7115 93.687 34.6805 92.1323 34.6857C91.9399 34.6908 91.709 34.7012 91.4396 34.7167C91.4396 34.841 91.4396 33.0291 91.4396 29.2812C91.4396 29.1 90.9855 29.0094 90.0773 29.0094C89.1691 29.0094 88.715 29.1 88.715 29.2812V29.4054C88.715 32.9049 88.715 34.6779 88.715 34.7245C88.7073 35.4285 88.6688 36.3267 88.5996 37.419C88.5072 38.8374 88.4956 39.645 88.5649 39.8417C88.6111 39.9815 88.9421 40.0695 89.5578 40.1057C89.9118 40.1212 90.2274 40.1031 90.5045 40.0513C90.9663 39.9633 91.201 39.7847 91.2087 39.5155C91.201 39.381 91.2356 38.7106 91.3126 37.5044C91.3665 36.7434 91.4011 36.117 91.4165 35.6252C91.5089 35.6201 91.5858 35.6149 91.6474 35.6097C92.9327 35.501 94.041 35.5062 94.9723 35.6252C94.9646 35.8944 94.93 36.4923 94.8684 37.419C94.7684 38.8374 94.753 39.645 94.8222 39.8417C94.8761 39.9815 95.2109 40.0695 95.8266 40.1057C96.1961 40.1264 96.5463 40.116 96.8772 40.0746C97.2467 40.0902 97.4429 39.9038 97.466 39.5155C97.466 39.3758 97.5045 38.7054 97.5815 37.5044C97.6738 36.1015 97.7162 35.1723 97.7085 34.7167Z" fill="#00570C"/>
<path d="M110.554 29.1103C110.062 29.0637 108.28 29.0301 105.209 29.0094C101.884 28.9887 99.8791 29.0249 99.1941 29.1181C98.9709 29.5426 98.8785 30.0784 98.917 30.7255C98.9247 30.8549 99.0671 30.9558 99.3442 31.0283C99.5905 31.0956 99.8868 31.1267 100.233 31.1215C100.587 31.1215 100.883 31.0878 101.122 31.0205C101.384 30.9481 101.511 30.8497 101.503 30.7255C101.441 30.0318 101.492 29.685 101.653 29.685C102.184 29.6694 102.965 29.6875 103.997 29.7393C103.927 29.9774 103.8 33.3242 103.616 39.7796C103.616 39.8831 103.75 39.9659 104.02 40.028C104.258 40.085 104.555 40.1135 104.909 40.1135C105.255 40.1135 105.548 40.085 105.786 40.028C106.063 39.9659 106.202 39.8831 106.202 39.7796C106.179 33.1171 106.171 29.7548 106.179 29.6927C107.295 29.6927 108.091 29.6979 108.569 29.7082C108.607 30.1431 108.611 30.4304 108.58 30.5702C108.572 30.6944 108.692 30.7928 108.938 30.8652C109.161 30.9325 109.434 30.9688 109.758 30.974C110.089 30.974 110.37 30.9403 110.6 30.873C110.854 30.8005 110.989 30.6996 111.004 30.5702C111.074 29.628 110.924 29.1414 110.554 29.1103Z" fill="#00570C"/>
<path d="M115.753 35.0118C115.761 34.4372 115.645 32.7211 115.407 29.8635C115.514 29.8118 115.807 29.7911 116.284 29.8014C116.63 29.8066 116.854 29.817 116.954 29.8325C117.869 29.9774 118.539 30.1923 118.962 30.477C119.54 30.8549 119.828 31.4166 119.828 32.162C119.828 33.2698 119.17 34.0774 117.854 34.5847C116.977 34.9212 116.276 35.0636 115.753 35.0118ZM115.291 29.1414C115.022 29.0482 114.714 29.0016 114.368 29.0016C114.06 29.0016 113.779 29.0379 113.525 29.1103C113.201 29.2087 113.036 29.3485 113.028 29.5297C113.013 30.0939 113.017 30.9377 113.04 32.0611C113.063 33.1896 113.067 34.036 113.051 34.6002C113.036 35.2473 113.028 36.9091 113.028 39.5854C113.028 39.7666 113.194 39.9064 113.525 40.0047C113.779 40.0772 114.06 40.1135 114.368 40.1135C114.668 40.1135 114.945 40.0772 115.199 40.0047C115.53 39.9064 115.695 39.7666 115.695 39.5854C115.695 37.8098 115.707 36.5881 115.73 35.9203C117.392 35.9203 118.878 35.5735 120.186 34.8798C121.61 34.1292 122.322 33.1974 122.322 32.0844C122.322 30.8212 121.344 29.9386 119.39 29.4365C117.912 29.0586 116.546 28.9602 115.291 29.1414Z" fill="#00570C"/>
<path d="M47.4689 56.5055C47.4689 56.5573 47.4689 56.3891 47.4689 56.0008C47.4689 55.8869 47.0494 55.83 46.2105 55.83C45.3716 55.83 44.9521 55.8869 44.9521 56.0008C44.9444 56.2648 44.9406 56.3813 44.9406 56.3502C44.9175 56.402 44.8751 56.5651 44.8136 56.8394C44.752 57.0776 44.5519 57.2251 44.2132 57.2821C44.0362 57.3079 43.713 57.3105 43.2435 57.2898C42.2121 57.2484 41.6349 57.2251 41.5117 57.2199C41.4809 57.1319 41.4963 56.8524 41.5579 56.3813C41.5656 56.314 41.5964 56.1846 41.6503 55.993C41.6964 55.6928 41.7234 55.4417 41.7311 55.2398C41.8388 53.7489 41.8234 52.095 41.6849 50.278C41.6002 49.1753 41.5772 48.4713 41.6156 48.1658C41.6541 47.6637 41.6811 47.41 41.6964 47.4049C42.7509 47.4929 43.6976 47.5188 44.5365 47.4825V47.4903C44.5442 47.5265 44.5326 47.6534 44.5019 47.8708C44.4018 48.4454 44.3556 48.7094 44.3633 48.6628C44.3479 48.7508 44.7558 48.8078 45.5871 48.8336C46.426 48.8544 46.857 48.7974 46.8801 48.6628C46.9648 48.2487 47.0225 47.7931 47.0533 47.2962C47.0687 47.1046 46.8993 46.9804 46.5453 46.9234C46.4529 46.9027 46.1682 46.882 45.691 46.8613C45.0829 46.8303 44.0016 46.8173 42.4469 46.8225C40.4996 46.8225 39.4721 46.8717 39.3644 46.97C39.1797 47.1512 39.0758 47.4489 39.0527 47.863C39.0373 47.9976 39.0334 48.1658 39.0411 48.3677C39.0488 48.6369 39.0527 48.7793 39.0527 48.7948C39.045 49.2918 39.0796 50.0062 39.1566 50.938C39.2335 51.9164 39.2759 52.6308 39.2836 53.0811C39.2913 54.4323 39.2258 55.5349 39.0873 56.3891C39.0026 56.8964 38.9796 57.2821 39.018 57.5461C39.0411 57.7221 39.172 57.8386 39.4106 57.8955C39.5414 57.9317 39.7838 57.955 40.1379 57.9654C41.9466 58.0223 43.5744 58.0146 45.0214 57.9421C45.6679 57.911 46.045 57.8903 46.1528 57.88C46.6377 57.8178 46.9609 57.7065 47.1225 57.5461C47.3149 57.3442 47.4266 57.0569 47.4573 56.6841C47.465 56.679 47.4689 56.6194 47.4689 56.5055Z" fill="#00570C"/>
<path d="M58.5626 56.0086C58.5626 55.8999 58.147 55.8455 57.3157 55.8455C56.4845 55.8403 56.065 55.8947 56.0573 56.0086C56.0496 56.2674 56.0458 56.3839 56.0458 56.358C56.0304 56.6531 55.9881 56.9378 55.9188 57.2122C55.8649 57.4451 55.6687 57.5901 55.33 57.647C55.153 57.6781 54.8297 57.6832 54.3602 57.6625C53.3443 57.616 52.7747 57.5901 52.6516 57.5849C52.6208 57.5021 52.6324 57.2277 52.6862 56.7618C52.6939 56.6893 52.7286 56.4382 52.7901 56.0086C52.8286 55.7083 52.8556 55.4598 52.871 55.2631C52.9171 54.6005 52.9364 54.1087 52.9287 53.7878C52.9518 53.7826 53.2635 53.7748 53.8638 53.7645C54.5103 53.7489 54.9683 53.7334 55.2377 53.7179C55.407 53.7075 55.5417 53.6558 55.6417 53.5626C55.7418 53.4642 55.7918 53.3426 55.7918 53.1976C55.7918 52.8508 55.5802 52.6748 55.1568 52.6696C55.1414 52.6696 54.7643 52.6696 54.0254 52.6696C53.3174 52.6748 52.9441 52.6748 52.9056 52.6696C52.9056 52.6385 52.894 52.2477 52.871 51.4971C52.8479 50.9121 52.8286 50.5238 52.8132 50.3323C52.7286 49.2348 52.7055 48.4713 52.744 48.0416C52.7901 47.5446 52.8209 47.2936 52.8363 47.2884C53.8754 47.3712 54.8143 47.3971 55.6533 47.366C55.6533 47.4023 55.6379 47.5291 55.6071 47.7465C55.5147 48.4402 55.4724 48.7689 55.4801 48.7327C55.4647 48.8155 55.8688 48.8699 56.6923 48.8958C57.5235 48.9165 57.9545 48.8621 57.9853 48.7327C58.07 48.3186 58.1277 47.863 58.1585 47.366C58.1662 47.1797 57.9969 47.0554 57.6505 46.9933C57.5582 46.9778 57.2734 46.9597 56.7962 46.939C56.1959 46.9079 55.1222 46.8924 53.5752 46.8924C51.6434 46.8976 50.6236 46.9493 50.5158 47.0477C50.3311 47.2237 50.2272 47.5188 50.2041 47.9329C50.1887 48.0675 50.1849 48.2331 50.1925 48.4299C50.2002 48.6991 50.2041 48.844 50.2041 48.8647C50.1964 49.3565 50.231 50.0631 50.308 50.9846C50.385 51.9578 50.4273 52.667 50.435 53.1122C50.4427 54.453 50.3773 55.5504 50.2387 56.4046C50.1541 56.9067 50.131 57.2872 50.1695 57.5461C50.1925 57.7221 50.3234 57.8386 50.562 57.8955C50.6851 57.9317 50.9237 57.955 51.2778 57.9654C53.0788 58.0223 54.695 58.0171 56.1266 57.9499C56.7731 57.9136 57.1503 57.8903 57.258 57.88C57.7429 57.823 58.0623 57.7117 58.2162 57.5461C58.4086 57.3493 58.5202 57.0646 58.551 56.6919C58.5587 56.6867 58.5626 56.6272 58.5626 56.5133C58.5626 56.5547 58.5626 56.3865 58.5626 56.0086Z" fill="#00570C"/>
<path d="M73.3391 47.1176C73.3545 47.0296 72.9273 46.97 72.0576 46.939C71.1879 46.9131 70.7338 46.9726 70.6953 47.1176C70.3797 47.5162 70.1373 47.8216 69.968 48.0338C68.8366 49.504 68.14 50.3582 67.8784 50.5963C67.7321 50.441 67.1472 49.8043 66.1235 48.6861C65.1461 47.6094 64.6419 47.0606 64.6112 47.0399C64.5265 46.9623 64.0839 46.9208 63.2835 46.9157C62.4831 46.9157 62.0482 46.9571 61.9789 47.0399C62.0636 46.9001 62.0905 50.5005 62.0597 57.8411C62.0597 57.9343 62.5023 57.9809 63.3874 57.9809C64.2648 57.9809 64.7035 57.9343 64.7035 57.8411C64.7035 57.7376 64.6766 56.2674 64.6227 53.4306C64.5688 50.8577 64.5534 49.4083 64.5765 49.0821C65.4232 50.0553 66.0235 50.6869 66.3775 50.9768C66.847 51.3547 67.2857 51.5462 67.6936 51.5514C68.0939 51.5566 68.5172 51.378 68.9636 51.0156C69.1637 50.8552 69.4523 50.5782 69.8294 50.1848C70.2681 49.724 70.5452 49.4393 70.6607 49.3306C70.6222 50.2469 70.6299 51.246 70.6838 52.3279C70.7069 52.7265 70.7069 53.6713 70.6838 55.1622C70.6684 56.3218 70.7107 57.2044 70.8108 57.8101C70.8415 57.9395 71.2495 58.0042 72.0345 58.0042C72.8273 58.0042 73.2467 57.9395 73.2929 57.8101C73.3006 57.7997 73.3083 57.7868 73.316 57.7713C73.3237 57.7505 73.3275 57.735 73.3275 57.7247C73.3198 57.7454 73.3083 56.0345 73.2929 52.5919C73.2775 49.1339 73.2929 47.3091 73.3391 47.1176Z" fill="#00570C"/>
<path d="M85.2525 56.0086C85.2525 55.8999 84.8368 55.8455 84.0056 55.8455C83.1744 55.8403 82.7549 55.8947 82.7472 56.0086C82.7395 56.2674 82.7357 56.3839 82.7357 56.358C82.7203 56.6531 82.678 56.9378 82.6087 57.2122C82.5548 57.4451 82.3585 57.5901 82.0199 57.647C81.8429 57.6781 81.5196 57.6832 81.0501 57.6625C80.0342 57.616 79.4646 57.5901 79.3415 57.5849C79.3107 57.5021 79.3223 57.2277 79.3761 56.7618C79.3838 56.6893 79.4185 56.4382 79.48 56.0086C79.5185 55.7083 79.5455 55.4598 79.5608 55.2631C79.607 54.6005 79.6263 54.1087 79.6186 53.7878C79.6417 53.7826 79.9534 53.7748 80.5537 53.7645C81.2002 53.7489 81.6582 53.7334 81.9275 53.7179C82.0969 53.7075 82.2316 53.6558 82.3316 53.5626C82.4317 53.4642 82.4817 53.3426 82.4817 53.1976C82.4817 52.8508 82.27 52.6748 81.8467 52.6696C81.8313 52.6696 81.4542 52.6696 80.7153 52.6696C80.0072 52.6748 79.634 52.6748 79.5955 52.6696C79.5955 52.6385 79.5839 52.2477 79.5608 51.4971C79.5378 50.9121 79.5185 50.5238 79.5031 50.3323C79.4185 49.2348 79.3954 48.4713 79.4338 48.0416C79.48 47.5446 79.5108 47.2936 79.5262 47.2884C80.5652 47.3712 81.5042 47.3971 82.3432 47.366C82.3432 47.4023 82.3278 47.5291 82.297 47.7465C82.2046 48.4402 82.1623 48.7689 82.17 48.7327C82.1546 48.8155 82.5587 48.8699 83.3822 48.8958C84.2134 48.9165 84.6444 48.8621 84.6752 48.7327C84.7599 48.3186 84.8176 47.863 84.8484 47.366C84.8561 47.1797 84.6868 47.0554 84.3404 46.9933C84.2481 46.9778 83.9633 46.9597 83.4861 46.939C82.8858 46.9079 81.8121 46.8924 80.2651 46.8924C78.3332 46.8976 77.3134 46.9493 77.2057 47.0477C77.021 47.2237 76.9171 47.5188 76.894 47.9329C76.8786 48.0675 76.8747 48.2331 76.8824 48.4299C76.8901 48.6991 76.894 48.844 76.894 48.8647C76.8863 49.3565 76.9209 50.0631 76.9979 50.9846C77.0748 51.9578 77.1172 52.667 77.1249 53.1122C77.1326 54.453 77.0672 55.5504 76.9286 56.4046C76.8439 56.9067 76.8209 57.2872 76.8593 57.5461C76.8824 57.7221 77.0133 57.8386 77.2519 57.8955C77.375 57.9317 77.6136 57.955 77.9677 57.9654C79.7687 58.0223 81.3849 58.0171 82.8165 57.9499C83.463 57.9136 83.8401 57.8903 83.9479 57.88C84.4328 57.823 84.7522 57.7117 84.9061 57.5461C85.0985 57.3493 85.2101 57.0646 85.2409 56.6919C85.2486 56.6867 85.2525 56.6272 85.2525 56.5133C85.2525 56.5547 85.2525 56.3865 85.2525 56.0086Z" fill="#00570C"/>
<path d="M90.5622 44.7725C90.4313 44.7725 90.3274 44.8424 90.2505 44.9822C90.1889 45.1116 90.1581 45.2695 90.1581 45.4558C90.1581 45.637 90.1889 45.7923 90.2505 45.9217C90.3274 46.0615 90.4313 46.1314 90.5622 46.1314H96.5886C96.7194 46.1314 96.8233 46.0615 96.9003 45.9217C96.9619 45.7923 96.9927 45.637 96.9927 45.4558C96.9927 45.2695 96.9619 45.1116 96.9003 44.9822C96.8233 44.8424 96.7194 44.7725 96.5886 44.7725H90.5622ZM98.4242 49.812C98.3934 48.4557 98.3473 47.6145 98.2857 47.2884C98.2472 47.0813 97.797 46.9856 96.9349 47.0011C96.5886 47.0063 96.2961 47.0347 96.0575 47.0865C95.7959 47.1383 95.6727 47.2056 95.6881 47.2884C95.7651 47.7181 95.8112 48.5593 95.8266 49.812C95.8266 50.0916 95.842 50.5368 95.8728 51.1476C95.8959 51.7274 95.9075 52.1752 95.9075 52.491C95.9075 54.5099 95.869 55.8119 95.792 56.3968L94.9261 57.0646C94.372 57.2406 93.7909 57.3286 93.1829 57.3286H91.2895C91.2895 57.2251 91.3011 57.0853 91.3241 56.9093C91.3472 56.7023 91.3588 56.5625 91.3588 56.49C91.3819 56.1484 91.4011 55.7032 91.4165 55.1544C91.4319 54.5539 91.4434 53.6661 91.4511 52.491C91.4511 52.1545 91.4396 51.7067 91.4165 51.1476C91.3857 50.4747 91.3665 50.0295 91.3588 49.812C91.3357 48.4557 91.2934 47.6145 91.2318 47.2884C91.1933 47.0813 90.743 46.9856 89.881 47.0011C89.5347 47.0063 89.2422 47.0347 89.0036 47.0865C88.7419 47.1383 88.6188 47.2056 88.6342 47.2884C88.7112 47.7181 88.7535 48.5593 88.7612 49.812C88.7689 50.0916 88.7843 50.5368 88.8074 51.1476C88.8381 51.7274 88.8535 52.1752 88.8535 52.491C88.8535 53.5315 88.842 54.4193 88.8189 55.1544C88.8112 55.553 88.792 55.9982 88.7612 56.49C88.7227 57.2406 88.7112 57.6367 88.7265 57.6781C88.7573 57.8748 89.5963 57.9809 91.2433 57.9964C92.4055 58.012 93.3714 57.9964 94.1411 57.9499C94.803 57.9084 95.3379 57.6444 95.7458 57.1578C95.7612 57.4684 95.7728 57.6418 95.7805 57.6781C95.8266 57.8903 96.2807 57.9861 97.1428 57.9654C97.4891 57.955 97.7816 57.924 98.0202 57.8722C98.2742 57.8204 98.3934 57.7557 98.3781 57.6781C98.3627 57.6211 98.3781 57.2251 98.4242 56.49C98.4396 56.1432 98.455 55.698 98.4704 55.1544C98.4935 54.5487 98.505 53.6609 98.505 52.491C98.505 52.1545 98.4935 51.7067 98.4704 51.1476C98.4396 50.4747 98.4242 50.0295 98.4242 49.812Z" fill="#00570C"/>
<path d="M110.315 52.6075C110.315 52.711 110.315 50.8992 110.315 47.1719C110.315 46.9907 109.86 46.9001 108.952 46.9001C108.044 46.9001 107.59 46.9907 107.59 47.1719V47.2962C107.59 50.6766 107.59 52.4677 107.59 52.6696C107.244 52.6023 106.293 52.5712 104.738 52.5764C104.546 52.5816 104.315 52.5919 104.046 52.6075C104.046 52.7317 104.046 50.9199 104.046 47.1719C104.046 46.9907 103.592 46.9001 102.683 46.9001C101.775 46.9001 101.321 46.9907 101.321 47.1719V47.2962C101.321 50.7956 101.321 52.5686 101.321 52.6152C101.313 53.3193 101.275 54.2174 101.206 55.3097C101.113 56.7281 101.102 57.5357 101.171 57.7324C101.217 57.8722 101.548 57.9602 102.164 57.9964C102.518 58.012 102.833 57.9939 103.111 57.9421C103.572 57.8541 103.807 57.6755 103.815 57.4063C103.807 57.2717 103.842 56.6013 103.919 55.3951C103.973 54.6342 104.007 54.0078 104.023 53.516C104.115 53.5108 104.192 53.5056 104.253 53.5005C105.539 53.3917 106.647 53.3969 107.578 53.516C107.571 53.7852 107.536 54.3831 107.474 55.3097C107.374 56.7281 107.359 57.5357 107.428 57.7324C107.482 57.8722 107.817 57.9602 108.433 57.9964C108.802 58.0171 109.152 58.0068 109.483 57.9654C109.853 57.9809 110.049 57.7945 110.072 57.4063C110.072 57.2665 110.111 56.5961 110.188 55.3951C110.28 53.9922 110.322 53.063 110.315 52.6075Z" fill="#00570C"/>
<path d="M116.271 48.3367C116.586 47.9588 117.406 47.7983 118.73 47.8552C119.438 47.9018 119.9 48.008 120.115 48.1736C120.208 48.3341 120.227 49.7292 120.173 52.359C120.119 55.0354 120.011 56.4693 119.85 56.6608C119.765 56.7644 119.222 56.8187 118.222 56.8239C116.736 56.8239 115.982 56.7489 115.959 56.5987C115.859 56.402 115.855 55.0043 115.947 52.4056C116.032 49.7862 116.14 48.4299 116.271 48.3367ZM113.742 57.3442C114.12 57.691 114.708 57.8903 115.509 57.9421C116.479 58.0042 117.579 58.012 118.811 57.9654C120.273 57.8826 121.343 57.6884 122.02 57.383C122.313 57.2536 122.482 55.6307 122.528 52.5143C122.582 49.4807 122.536 47.8164 122.39 47.5213C122.051 47.1434 120.862 46.9441 118.822 46.9234C116.39 46.9027 114.962 47.0063 114.539 47.234C114.008 47.4773 113.681 49.1908 113.558 52.3745C113.442 55.465 113.504 57.1216 113.742 57.3442Z" fill="#00570C"/>
<path d="M133.633 46.9545C133.502 46.9545 132.817 46.9467 131.578 46.9312C130.501 46.9157 129.62 46.9131 128.935 46.9234C126.756 46.9441 125.667 47.0684 125.667 47.2962C125.66 47.9795 125.698 49.7344 125.783 52.5609C125.883 55.5323 125.933 57.2122 125.933 57.6004C125.933 57.7505 126.064 57.8618 126.325 57.9343C126.556 58.0016 126.837 58.0223 127.168 57.9964C127.507 57.9654 127.792 57.8981 128.022 57.7945C128.276 57.6703 128.403 57.5202 128.403 57.3442C128.273 51.1476 128.196 47.9355 128.173 47.7077C128.173 47.687 129.477 47.6741 132.086 47.6689C132.079 47.6689 132.094 47.7103 132.132 47.7931C132.171 48.1762 132.236 48.4687 132.329 48.6706C132.406 48.8569 132.825 48.932 133.587 48.8958C133.88 48.8802 134.141 48.8518 134.372 48.8103C134.603 48.7638 134.719 48.7223 134.719 48.6861C134.719 48.2409 134.703 47.9484 134.672 47.8087C134.549 47.2392 134.203 46.9545 133.633 46.9545Z" fill="#00570C"/>
<path d="M140.721 48.3367C141.036 47.9588 141.856 47.7983 143.18 47.8552C143.888 47.9018 144.35 48.008 144.565 48.1736C144.658 48.3341 144.677 49.7292 144.623 52.359C144.569 55.0354 144.461 56.4693 144.3 56.6608C144.215 56.7644 143.673 56.8187 142.672 56.8239C141.187 56.8239 140.432 56.7489 140.409 56.5987C140.309 56.402 140.305 55.0043 140.398 52.4056C140.482 49.7862 140.59 48.4299 140.721 48.3367ZM138.193 57.3442C138.57 57.691 139.159 57.8903 139.959 57.9421C140.929 58.0042 142.029 58.012 143.261 57.9654C144.723 57.8826 145.793 57.6884 146.47 57.383C146.763 57.2536 146.932 55.6307 146.978 52.5143C147.032 49.4807 146.986 47.8164 146.84 47.5213C146.501 47.1434 145.312 46.9441 143.272 46.9234C140.84 46.9027 139.413 47.0063 138.989 47.234C138.458 47.4773 138.131 49.1908 138.008 52.3745C137.892 55.465 137.954 57.1216 138.193 57.3442Z" fill="#00570C"/>
<path d="M54.4932 71.2825C54.37 71.1065 54.0853 70.9667 53.6389 70.8632C53.077 70.7286 52.7384 70.6328 52.6229 70.5759C52.6922 70.5448 52.8038 70.493 52.9577 70.4206C53.1039 70.3585 53.204 70.3093 53.2579 70.273C53.6889 70.0246 53.9929 69.8097 54.1699 69.6285C54.3392 69.437 54.4355 68.953 54.4585 68.1765C54.4585 67.9694 54.4662 67.6226 54.4816 67.1359C54.4893 66.7788 54.497 66.4707 54.5047 66.2119C54.5509 65.5803 54.4355 65.1533 54.1584 64.9307C54.0429 64.8375 53.0193 64.7883 51.0874 64.7831C49.5096 64.778 48.4398 64.7909 47.878 64.8219C47.4008 64.8427 47.116 64.8608 47.0236 64.8763C46.6696 64.9384 46.5003 65.0627 46.5157 65.249C46.5465 65.7408 46.6042 66.1964 46.6888 66.6157C46.7119 66.7451 47.1391 66.7995 47.9703 66.7788C48.8016 66.758 49.2095 66.7037 49.1941 66.6157C49.2018 66.6571 49.1556 66.3284 49.0555 65.6295C49.0248 65.4121 49.0132 65.2853 49.0209 65.249C49.8521 65.2801 50.7911 65.2542 51.8379 65.1714C51.9071 65.1921 51.9379 65.3552 51.9302 65.6606C51.9225 65.6761 51.9187 65.6891 51.9187 65.6994C51.9187 65.8185 51.9033 66.6105 51.8725 68.0755C51.8571 68.8727 51.7917 69.3361 51.6762 69.4655C51.4992 69.6674 51.1836 69.89 50.7295 70.1333C50.6757 70.1643 50.5718 70.2135 50.4178 70.2808C50.2716 70.3429 50.1638 70.3947 50.0946 70.4361C50.0022 70.4723 49.9483 70.5086 49.933 70.5448C49.9099 70.5655 49.8983 70.5759 49.8983 70.5759C49.7752 70.7001 49.8868 70.7985 50.2331 70.8709C50.2485 70.8761 50.2639 70.8787 50.2793 70.8787C50.364 70.8994 50.4717 70.9175 50.6026 70.9331C50.5718 70.9227 50.8527 70.9693 51.4453 71.0728C51.8379 71.1401 52.0341 71.2411 52.0341 71.3757C52.0495 72.2713 52.0572 72.9054 52.0572 73.2781C52.0572 73.3817 52.0534 73.5628 52.0457 73.8217C52.038 74.0598 52.038 74.2462 52.0457 74.3808H52.0341C52.0341 74.3808 52.0303 74.3808 52.0226 74.3808C52.0303 74.4222 52.038 74.4817 52.0457 74.5594C52.0841 75.0149 52.0764 75.3203 52.0226 75.4756C51.9071 75.4808 51.3337 75.5067 50.3024 75.5533C49.8406 75.574 49.5173 75.5688 49.3326 75.5378C49.0017 75.4808 48.8054 75.3333 48.7438 75.0952C48.6823 74.8208 48.6399 74.5387 48.6168 74.2488C48.6168 74.2798 48.613 74.1633 48.6053 73.8993C48.6053 73.7854 48.1897 73.7311 47.3584 73.7363C46.5195 73.7363 46.1001 73.7906 46.1001 73.8993C46.1001 74.2772 46.1001 74.4455 46.1001 74.4041C46.1078 74.5179 46.1116 74.5775 46.1116 74.5827C46.1424 74.9554 46.254 75.2401 46.4464 75.4368C46.608 75.6025 46.9313 75.7138 47.4162 75.7707C47.5239 75.7811 47.9011 75.8044 48.5476 75.8406C49.9791 75.9079 51.5954 75.9131 53.3964 75.8561C53.7505 75.8458 53.989 75.8225 54.1122 75.7862C54.3508 75.7293 54.4816 75.6128 54.5047 75.4368C54.574 74.9399 54.6086 74.6707 54.6086 74.6292C54.6163 74.562 54.6202 74.4739 54.6202 74.3652C54.6202 74.2306 54.6202 74.1478 54.6202 74.1168C54.651 73.6716 54.6548 72.9649 54.6317 71.9969C54.624 71.6293 54.5778 71.3912 54.4932 71.2825Z" fill="#00570C"/>
<path d="M61.4511 70.8477C61.4588 70.5319 61.4357 69.9728 61.3818 69.1704C61.3202 68.3007 61.2856 67.6019 61.2779 67.0738C61.5704 66.9858 62.2938 66.7865 63.4483 66.4759C64.6798 66.1446 65.334 65.9686 65.411 65.9479C65.4187 68.0238 65.4187 69.3412 65.411 69.9003C65.3956 71.3187 65.3609 72.543 65.3071 73.5732C65.2917 73.7233 65.2647 73.977 65.2262 74.3342C65.1801 74.6707 65.157 74.9295 65.157 75.1107C64.7491 75.1055 63.4445 75.0822 61.2433 75.0408C61.251 74.9166 61.2663 74.7302 61.2894 74.4817C61.3048 74.2384 61.3164 74.0546 61.3241 73.9304C61.3395 73.7233 61.3741 72.9623 61.428 71.6475C61.4126 71.5698 61.4164 71.4482 61.4395 71.2825C61.4626 71.1117 61.4665 70.9667 61.4511 70.8477ZM67.7777 75.165C67.7854 74.9735 67.8046 74.7224 67.8354 74.4118C67.8585 74.0236 67.8739 73.7751 67.8816 73.6664C67.9277 72.864 67.9624 72.204 67.9855 71.6863C67.9932 71.6863 67.997 69.4655 67.997 65.0238C67.997 64.8323 67.566 64.7365 66.704 64.7365C66.3038 64.7365 65.0492 65.0135 62.9404 65.5674C60.9239 66.1006 59.6231 66.4811 59.0382 66.7089C58.7996 66.8072 58.6995 67.4207 58.738 68.5492C58.7457 68.777 58.7688 69.261 58.8073 70.0013C58.8458 70.5914 58.865 71.0237 58.865 71.298C58.8573 71.9658 58.8188 72.8148 58.7496 73.845C58.7419 73.9847 58.7188 74.1763 58.6803 74.4196C58.6418 74.694 58.6187 74.8881 58.611 75.002C58.6957 75.002 58.0261 75.002 56.6022 75.002C56.3559 75.002 56.1558 75.0641 56.0019 75.1883C55.8864 75.2867 55.8287 75.3799 55.8287 75.4679C55.8287 75.9286 55.8287 76.6197 55.8287 77.5412C55.8287 77.6447 55.9442 77.7301 56.1751 77.7974C56.3906 77.8543 56.6523 77.8828 56.9601 77.8828C57.2603 77.8828 57.5181 77.8543 57.7336 77.7974C57.9645 77.7353 58.08 77.6499 58.08 77.5412C58.08 77.039 58.08 76.6637 58.08 76.4152C62.7441 76.4152 66.0498 76.4152 67.997 76.4152C67.8662 77.1503 67.793 77.5644 67.7777 77.6576C67.7623 77.756 67.87 77.8362 68.1009 77.8983C68.3087 77.9605 68.5666 77.9941 68.8744 77.9993C69.19 78.0045 69.4555 77.9812 69.671 77.9294C69.925 77.8673 70.0635 77.7767 70.0866 77.6576C70.1174 77.4764 70.1751 77.1167 70.2598 76.5783C70.3368 76.1279 70.4022 75.7681 70.4561 75.4989C70.4945 75.3126 69.6017 75.2013 67.7777 75.165Z" fill="#00570C"/>
<path d="M74.47 66.2274C74.7856 65.8495 75.6053 65.689 76.9291 65.746C77.6372 65.7926 78.099 65.8987 78.3145 66.0644C78.4068 66.2248 78.4261 67.62 78.3722 70.2497C78.3183 72.9261 78.2106 74.3601 78.0489 74.5516C77.9643 74.6551 77.4217 74.7095 76.4211 74.7147C74.9357 74.7147 74.1814 74.6396 74.1583 74.4895C74.0583 74.2928 74.0544 72.895 74.1468 70.2963C74.2314 67.6769 74.3392 66.3206 74.47 66.2274ZM71.9417 75.2349C72.3188 75.5818 72.9076 75.7811 73.7081 75.8328C74.6778 75.895 75.7784 75.9027 77.0099 75.8561C78.4722 75.7733 79.5421 75.5792 80.2194 75.2738C80.5118 75.1443 80.6812 73.5214 80.7273 70.405C80.7812 67.3715 80.735 65.7072 80.5888 65.4121C80.2501 65.0342 79.061 64.8349 77.0214 64.8142C74.5893 64.7935 73.1616 64.897 72.7383 65.1248C72.2072 65.3681 71.8801 67.0816 71.757 70.2653C71.6415 73.3558 71.7031 75.0123 71.9417 75.2349Z" fill="#00570C"/>
<path d="M86.6028 70.7933C86.6105 70.2187 86.495 68.5026 86.2564 65.6451C86.3642 65.5933 86.6566 65.5726 87.1338 65.5829C87.4802 65.5881 87.7034 65.5985 87.8034 65.614C88.7193 65.7589 89.3889 65.9738 89.8122 66.2585C90.3895 66.6364 90.6781 67.1981 90.6781 67.9435C90.6781 69.0513 90.02 69.8589 88.7039 70.3662C87.8265 70.7027 87.1261 70.8451 86.6028 70.7933ZM86.141 64.9229C85.8716 64.8297 85.5637 64.7831 85.2174 64.7831C84.9095 64.7831 84.6286 64.8194 84.3746 64.8918C84.0513 64.9902 83.8859 65.13 83.8782 65.3111C83.8628 65.8754 83.8666 66.7192 83.8897 67.8426C83.9128 68.9711 83.9166 69.8175 83.9012 70.3817C83.8859 71.0288 83.8782 72.6906 83.8782 75.3669C83.8782 75.5481 84.0436 75.6879 84.3746 75.7862C84.6286 75.8587 84.9095 75.895 85.2174 75.895C85.5175 75.895 85.7946 75.8587 86.0486 75.7862C86.3796 75.6879 86.545 75.5481 86.545 75.3669C86.545 73.5913 86.5566 72.3696 86.5797 71.7018C88.2421 71.7018 89.7276 71.355 91.036 70.6613C92.4598 69.9107 93.1718 68.9789 93.1718 67.8659C93.1718 66.6027 92.1943 65.7201 90.2394 65.218C88.7616 64.8401 87.3955 64.7417 86.141 64.9229Z" fill="#00570C"/>
<path d="M97.8509 66.2274C98.1665 65.8495 98.9862 65.689 100.31 65.746C101.018 65.7926 101.48 65.8987 101.695 66.0644C101.788 66.2248 101.807 67.62 101.753 70.2497C101.699 72.9261 101.591 74.3601 101.43 74.5516C101.345 74.6551 100.803 74.7095 99.802 74.7147C98.3166 74.7147 97.5623 74.6396 97.5392 74.4895C97.4392 74.2928 97.4353 72.895 97.5277 70.2963C97.6123 67.6769 97.7201 66.3206 97.8509 66.2274ZM95.3226 75.2349C95.6997 75.5818 96.2885 75.7811 97.089 75.8328C98.0587 75.895 99.1594 75.9027 100.391 75.8561C101.853 75.7733 102.923 75.5792 103.6 75.2738C103.893 75.1443 104.062 73.5214 104.108 70.405C104.162 67.3715 104.116 65.7072 103.97 65.4121C103.631 65.0342 102.442 64.8349 100.402 64.8142C97.9702 64.7935 96.5425 64.897 96.1192 65.1248C95.5881 65.3681 95.261 67.0816 95.1379 70.2653C95.0224 73.3558 95.084 75.0123 95.3226 75.2349Z" fill="#00570C"/>
<path d="M114.948 74.6991C114.579 74.8959 113.586 75.033 111.969 75.1107C111.731 75.121 111.188 75.1185 110.342 75.1029C110.457 73.4774 110.499 72.0331 110.469 70.77C111.408 70.7131 112.477 70.9253 113.678 71.4067C114.863 71.9658 115.506 72.6207 115.606 73.3713C115.629 73.5887 115.587 73.8269 115.479 74.0857C115.348 74.3756 115.171 74.5801 114.948 74.6991ZM112.951 67.1359C113.266 67.752 113.101 68.3991 112.454 69.0772C112.169 69.3723 111.835 69.613 111.45 69.7994C111.273 69.8874 111.061 69.9702 110.815 70.0479C110.784 70.0582 110.769 70.0608 110.769 70.0556C110.715 70.0711 110.665 70.0841 110.619 70.0944C110.619 70.0944 110.596 70.0996 110.549 70.11C110.542 70.11 110.507 70.1152 110.445 70.1255C110.338 67.6976 110.307 66.1472 110.353 65.4742H110.399C110.422 65.4742 110.465 65.4742 110.526 65.4742C110.596 65.4794 110.638 65.4846 110.653 65.4897C110.661 65.4897 110.673 65.4897 110.688 65.4897C110.696 65.4949 110.711 65.5001 110.734 65.5053C111.219 65.6243 111.665 65.8392 112.073 66.1498C112.466 66.4449 112.758 66.7736 112.951 67.1359ZM114.082 70.4516C113.905 70.4102 113.72 70.3714 113.528 70.3352C114.198 70.0711 114.732 69.7269 115.133 69.3024C115.918 68.4845 116.029 67.651 115.467 66.802C115.137 66.3051 114.609 65.8832 113.886 65.5363C113.224 65.2154 112.474 64.9954 111.635 64.8763C110.926 64.7779 110.184 64.7521 109.406 64.7987C108.344 64.7572 107.763 64.8297 107.663 65.0161C107.563 65.2024 107.536 65.4121 107.582 65.6451C107.575 65.9194 107.617 67.576 107.709 70.6147C107.756 71.9399 107.698 73.6094 107.536 75.6232C107.521 75.7681 107.971 75.8561 108.887 75.8872C109.549 75.9131 109.999 75.882 110.238 75.794C110.569 75.8406 111.119 75.8613 111.889 75.8561C113.336 75.8458 114.79 75.706 116.253 75.4368C117.161 75.266 117.75 74.9839 118.019 74.5904C118.612 73.7207 118.423 72.8666 117.453 72.0279C116.622 71.3136 115.498 70.7881 114.082 70.4516Z" fill="#00570C"/>
<path d="M126.42 72.7423C126.42 73.4723 126.093 74.021 125.439 74.3885C124.992 74.637 124.284 74.8389 123.314 74.9942C123.237 75.0046 123.014 75.0149 122.645 75.0253C122.175 75.0356 121.887 75.0149 121.779 74.9631C122.01 73.1254 122.121 71.9218 122.114 71.3524C122.737 71.2954 123.476 71.3265 124.33 71.4456C125.723 71.6475 126.42 72.0797 126.42 72.7423ZM128.637 72.7579C128.637 71.9451 127.932 71.3265 126.524 70.902C125.339 70.5448 123.865 70.3662 122.102 70.3662C122.071 69.6725 122.056 67.9875 122.056 65.3111C122.056 65.1351 121.894 64.998 121.571 64.8996C121.317 64.8271 121.04 64.7909 120.74 64.7909C120.44 64.7909 120.163 64.8271 119.909 64.8996C119.578 64.998 119.412 65.1351 119.412 65.3111C119.412 67.9668 119.42 69.6182 119.435 70.2653C119.451 70.8244 119.447 71.663 119.424 72.7812C119.401 73.8993 119.397 74.738 119.412 75.297C119.42 75.4731 119.585 75.6102 119.909 75.7086C120.155 75.7811 120.432 75.8173 120.74 75.8173C122.918 75.8173 124.265 75.7785 124.781 75.7008C127.351 75.3126 128.637 74.3316 128.637 72.7579Z" fill="#00570C"/>
<path d="M133.385 67.9435C133.385 67.1567 133.558 66.5924 133.904 66.2507C134.212 65.9505 134.77 65.7356 135.578 65.6062C135.648 65.5907 135.871 65.5803 136.248 65.5752C136.725 65.5648 137.018 65.5855 137.125 65.6373C136.887 67.9202 136.771 69.349 136.779 69.9236C135.971 70.0013 135.386 70.0038 135.024 69.9314C133.931 69.7088 133.385 69.0462 133.385 67.9435ZM139.504 65.3034C139.504 65.1222 139.338 64.9824 139.007 64.8841C138.753 64.8116 138.476 64.7754 138.176 64.7754C137.822 64.7754 137.51 64.8219 137.241 64.9151C136.033 64.7391 134.778 64.8401 133.477 65.218C131.753 65.7149 130.891 66.5976 130.891 67.8659C130.891 68.7873 131.311 69.4758 132.15 69.9314C132.819 70.2989 133.904 70.5707 135.405 70.7467C134.282 71.1505 133.273 71.6656 132.381 72.292C131.411 72.9701 130.926 73.5499 130.926 74.0313C130.926 74.2281 130.918 74.4817 130.903 74.7923C130.895 75.1029 130.891 75.3566 130.891 75.5533C130.891 75.662 131.034 75.7474 131.318 75.8095C131.58 75.8717 131.892 75.9001 132.254 75.895C132.631 75.8898 132.946 75.8561 133.2 75.794C133.485 75.7164 133.627 75.6128 133.627 75.4834C133.635 75.3436 133.647 75.134 133.662 74.8544C133.677 74.6215 133.685 74.4118 133.685 74.2255C133.685 72.9882 134.724 71.9063 136.802 70.9797C136.825 72.4809 136.837 73.9407 136.837 75.3592C136.837 75.5404 137.002 75.6801 137.333 75.7785C137.587 75.8561 137.868 75.895 138.176 75.895C138.476 75.895 138.753 75.8561 139.007 75.7785C139.338 75.6801 139.504 75.5404 139.504 75.3592C139.511 72.6828 139.504 71.0211 139.481 70.374C139.473 69.8097 139.477 68.9659 139.492 67.8426C139.515 66.714 139.519 65.8676 139.504 65.3034Z" fill="#00570C"/>
<defs>
<radialGradient id="paint0_radial" cx="0" cy="0" r="1" gradientUnits="userSpaceOnUse" gradientTransform="translate(92.5 107) rotate(90) scale(107 106.5)">
<stop stop-color="#F0F499"/>
<stop offset="1" stop-color="#C3EABB"/>
</radialGradient>
<linearGradient id="paint1_linear" x1="93.5" y1="127.5" x2="69" y2="126.5" gradientUnits="userSpaceOnUse">
<stop stop-color="#B7CDA7"/>
<stop offset="0.234375" stop-color="#BBCDA1"/>
<stop offset="0.505208" stop-color="#49A465"/>
<stop offset="0.666667" stop-color="#BDCCA0"/>
<stop offset="1" stop-color="#C0CC9B"/>
</linearGradient>
<linearGradient id="paint2_linear" x1="106.831" y1="140.776" x2="106.831" y2="163.548" gradientUnits="userSpaceOnUse">
<stop stop-color="#B7CDA7"/>
<stop offset="0.366259" stop-color="#B7CDA7"/>
<stop offset="0.529659" stop-color="#4AA566"/>
<stop offset="0.699466" stop-color="#B7CDA7"/>
<stop offset="1" stop-color="#B7CDA7"/>
</linearGradient>
<radialGradient id="paint3_angular" cx="0" cy="0" r="1" gradientUnits="userSpaceOnUse" gradientTransform="translate(80.7499 153.562) rotate(90) scale(22.5625 25.7499)">
<stop stop-color="white"/>
<stop offset="0.0989583" stop-color="#EDF6D7"/>
<stop offset="0.203125" stop-color="white"/>
<stop offset="0.302083" stop-color="#EFF7DC"/>
<stop offset="0.385417" stop-color="white"/>
<stop offset="0.5" stop-color="#EFF7DC"/>
<stop offset="0.619792" stop-color="white"/>
<stop offset="0.713542" stop-color="#EFF7DC"/>
<stop offset="0.8125" stop-color="white"/>
<stop offset="0.901042" stop-color="#EFF7DC"/>
<stop offset="1" stop-color="white"/>
</radialGradient>
<radialGradient id="paint4_radial" cx="0" cy="0" r="1" gradientUnits="userSpaceOnUse" gradientTransform="translate(82.32 154) rotate(97.9104) scale(9.59127 12.4807)">
<stop stop-color="#B1C118"/>
<stop offset="0.354167" stop-color="#FFD839"/>
<stop offset="0.677083" stop-color="#FFD634"/>
<stop offset="1" stop-color="#F19609"/>
</radialGradient>
</defs>
</svg>
