<svg width="2000" height="453" viewBox="0 0 2000 453" fill="none" xmlns="http://www.w3.org/2000/svg">
<path d="M2000 453V281.079C1820.01 283.122 1122.59 285.398 654.277 350.504C195.52 446.05 70.1914 217.149 27.2439 0H0L0.390432 453H2000Z" fill="#F5F7E9"/>
<path d="M2000 374.136V0.51083L27.5918 0H3C18.6138 170.106 149.773 470.845 654.486 349.919C904.57 290 1228.48 368.427 1686.56 384C1849.4 352.335 1889.62 360.825 2000 374.136Z" fill="#7CD26D"/>
<path d="M2000 372.726V348.151C1868.03 354 1642.45 364.726 1389.43 384.316C1213.02 383.691 1103.91 266.266 654.486 344.996C176.704 428.693 70.5297 216.898 27.5918 0H3C18.6138 169.946 144.795 477.602 654.486 364.9C1049.37 277.583 1019.4 417 1389.43 424C1719 424 1797.5 347.28 2000 372.726Z" fill="#CEE9AF"/>
<path d="M2000 380.116V371.149C1684.62 341.004 1667.75 359.599 1390.08 346.528C1213.55 347.017 1118.09 271.389 654.486 335.775C195.831 431.2 70.5297 216.876 27.5918 0H3C18.6138 169.928 148.599 453.653 654.486 350.573C1046.57 270.682 1184.2 395.38 1390.08 386.549C1733.92 371.8 1841.62 358.818 2000 380.116Z" fill="#008A2B"/>
</svg>
